<?xml version="1.0" standalone="no"?>
<!DOCTYPE svg PUBLIC "-//W3C//DTD SVG 20010904//EN"
 "http://www.w3.org/TR/2001/REC-SVG-20010904/DTD/svg10.dtd">
<svg version="1.0" xmlns="http://www.w3.org/2000/svg"
 width="250.000000pt" height="250.000000pt" viewBox="0 0 250.000000 250.000000"
 preserveAspectRatio="xMidYMid meet">

<g transform="translate(0.000000,250.000000) scale(0.100000,-0.100000)"
fill="#000000" stroke="none">
<path d="M1063 2296 c-454 -87 -797 -443 -864 -895 -16 -111 -7 -303 20 -403
103 -394 379 -670 779 -780 112 -31 392 -31 504 0 400 110 670 380 780 780 31
112 31 392 0 504 -110 400 -385 675 -780 780 -100 26 -335 34 -439 14z m225
-826 l3 -495 124 345 c69 190 132 364 141 388 13 36 20 42 45 42 21 0 30 -6
34 -22 6 -25 155 -958 155 -970 0 -5 -16 -8 -35 -8 -19 0 -35 3 -35 8 0 4 -30
200 -67 436 l-67 428 -19 -58 c-11 -33 -76 -216 -145 -409 l-125 -350 -6 -135
-6 -135 -35 0 -35 0 -6 135 -6 135 -125 350 c-69 193 -134 376 -145 409 l-19
58 -67 -428 c-37 -236 -67 -432 -67 -436 0 -5 -16 -8 -35 -8 -19 0 -35 3 -35
8 0 12 149 945 155 970 4 16 13 22 34 22 25 0 32 -6 45 -42 9 -24 72 -198 141
-388 l124 -345 1 491 c0 270 3 494 7 498 4 4 21 6 38 4 l30 -3 3 -495z"/>
</g>
</svg>
